<?xml version="1.0" encoding="UTF-8" standalone="no"?>
<svg
   xmlns="http://www.w3.org/2000/svg"
   id="svg11"
   version="1.1"
   height="1052.3622047"
   width="744.09448819">
  <g
     transform="matrix(-1,0,0,1,707.28997,0)"
     id="g9">
    <g
       style="display:inline"
       id="layer1">
      <path
         id="path25"
         d="m 507.9052,466.49884 c 0,0 -21.50553,-11.50625 -37.548,-16.19556 -16.04248,-4.6893 -26.6219,-2.56166 -35.42642,-0.93405 -26.51541,4.90166 -49.11474,24.18814 -88.68927,75.68833 -28.90521,37.61578 -44.66467,53.15087 -63.21044,62.31079 -14.15369,6.9906 -14.61286,7.08087 -35.70514,7.01727 -23.56887,-0.0711 -32.53929,-2.54517 -51.67168,-14.25128 l -9.87087,-6.03943 -54.38559,-136.93448 C 101.48574,361.84646 77.008635,299.10556 77.004278,297.7362 c -0.0054,-1.70819 3.041649,-0.77887 9.707001,2.96048 23.193561,13.01181 47.054011,18.64127 64.087351,15.12027 26.44078,-5.46557 47.23132,-23.0744 85.64511,-72.5383 25.78856,-33.20687 41.7166,-50.50062 54.62816,-59.31208 26.71441,-18.23116 59.22955,-19.25551 91.66119,-2.88764 12.20062,6.1575 13.37949,6.89514 13.37949,6.89514 z"
         style="display:inline;fill:#fbffff;fill-opacity:1" />
      <path
         style="fill:#000000"
         d="m 613.60754,733.87909 c -1.07818,-2.38977 -25.1311,-62.63471 -53.4508,-133.87763 l -51.49039,-129.53265 -11.38306,-6.68933 c -20.5437,-12.07266 -44.74347,-17.66547 -62.35251,-14.41025 -26.51541,4.90164 -49.11474,24.18814 -88.68927,75.68833 -28.90521,37.61578 -44.66467,53.15087 -63.21044,62.31079 -14.15369,6.9906 -14.61286,7.08087 -35.70514,7.01727 -23.56887,-0.0711 -32.53929,-2.54517 -51.67168,-14.25128 l -9.87087,-6.03943 -54.38559,-136.93448 C 101.48574,361.84646 77.008635,299.10556 77.004278,297.7362 c -0.0054,-1.70819 3.041649,-0.77887 9.707001,2.96048 23.193561,13.01181 47.054011,18.64127 64.087351,15.12027 26.44078,-5.46557 47.23132,-23.0744 85.64511,-72.5383 25.78856,-33.20687 41.7166,-50.50062 54.62816,-59.31208 26.71441,-18.23116 59.22955,-19.25551 91.66119,-2.88764 12.20062,6.1575 12.5434,6.23169 12.5434,2.71468 0,-2.18079 7.75216,-5.4189 13.50555,-5.64131 1.28989,-0.0499 221.50366,551.07121 221.50366,554.34929 0,0.69158 -2.00439,1.76049 -4.45428,2.37536 -2.44983,0.61487 -5.76129,1.61951 -7.35883,2.23255 -1.91357,0.73431 -3.57348,-0.36792 -4.86505,-3.23041 z M 273.07989,588.1687 c 5.07438,-1.92816 14.64112,-7.36975 21.25943,-12.09247 l 12.0333,-8.58679 -3.09753,-7.80005 c -1.70365,-4.29004 -6.51185,-16.31878 -10.68494,-26.73065 l -7.58737,-18.93054 -11.01731,8.29254 c -10.91461,8.21527 -27.216,15.69013 -34.21753,15.69013 -1.99734,0 -3.63153,0.96392 -3.63153,2.14209 0,1.1781 4.30564,13.25244 9.56806,26.83172 10.78927,27.84094 10.48187,27.60303 27.37542,21.18402 z m -38.79394,-49.25006 c 0,-0.51843 -4.5799,-12.35492 -10.17757,-26.30328 -5.59765,-13.9484 -10.17756,-25.95575 -10.17756,-26.68308 0,-0.72729 4.78808,-2.70416 10.64018,-4.39303 11.26901,-3.25217 19.32864,-7.51087 30.33636,-16.02967 3.70861,-2.87008 7.1574,-5.21832 7.66396,-5.21832 0.50656,0 5.30008,11.03339 10.65219,24.51868 5.35217,13.48526 10.51306,25.35138 11.46872,26.36914 1.95654,2.08362 11.7738,-8.21652 29.54227,-30.99533 6.15267,-7.88761 11.36312,-14.3411 11.57873,-14.3411 0.21564,0 4.82739,11.24158 10.24835,24.98129 5.42099,13.73972 10.50446,24.9813 11.29663,24.9813 0.79218,0 5.40964,-5.20444 10.26102,-11.56543 4.85138,-6.36096 13.67838,-16.66873 19.6156,-22.90613 l 10.79492,-11.3407 -9.04336,-22.89291 c -4.97385,-12.5911 -9.61798,-24.49472 -10.32031,-26.45249 -1.14472,-3.19088 -2.15152,-2.71167 -9.71936,4.62616 -4.64332,4.50217 -13.8429,15.05561 -20.44352,23.45209 -6.60064,8.39652 -12.28463,15.26636 -12.63113,15.26636 -0.3465,0 -5.36862,-12.11811 -11.16028,-26.92908 -5.79169,-14.811 -10.74795,-26.67712 -11.01398,-26.36914 -0.26602,0.30795 -7.13559,8.88702 -15.26568,19.06457 -8.13007,10.17759 -17.24597,20.80896 -20.25751,23.62534 l -5.47552,5.12067 -9.79978,-25.4758 c -5.38987,-14.01169 -10.47285,-26.20594 -11.29554,-27.09839 -0.82586,-0.89588 -5.11268,1.34115 -9.57131,4.99463 -8.96789,7.34854 -25.07002,15.41159 -34.29323,17.17221 -3.30771,0.63141 -6.014,1.7095 -6.014,2.39575 0,0.68625 4.57989,12.66003 10.17755,26.60843 5.59765,13.94836 10.17756,25.78485 10.17756,26.30328 0,1.98392 -18.19703,0.82025 -28.2924,-1.80926 -5.81091,-1.51355 -16.39473,-5.68756 -23.51959,-9.27561 -7.12488,-3.58801 -12.9543,-6.26599 -12.9543,-5.95108 0,0.31492 4.80093,12.60785 10.66875,27.31763 l 10.66874,26.74506 13.84992,6.92029 c 7.61746,3.80615 18.42984,8.12304 24.02749,9.59314 9.89946,2.59985 27.75699,3.86975 27.75699,1.97381 z M 493.26419,436.92691 c -5.22388,-13.10239 -10.41171,-24.92837 -11.5285,-26.27997 -3.1153,-3.77032 -17.53128,-10.57229 -31.60276,-14.91128 -14.32943,-4.41855 -33.63604,-5.37949 -32.11825,-1.59857 0.51071,1.27221 5.32333,13.34649 10.69464,26.83175 l 9.76608,24.51868 h 11.51401 c 12.42761,0 29.91974,4.80194 43.36179,11.90369 4.57992,2.41967 8.57098,4.16516 8.86902,3.87884 0.29806,-0.28631 -3.73215,-11.24075 -8.95603,-24.34314 z m -304.23302,-8.56427 c 0.4899,-1.27664 -3.61998,-13.55911 -9.13305,-27.2944 -5.51307,-13.73526 -9.63807,-25.59772 -9.16668,-26.36103 0.47139,-0.76333 2.02578,-1.38787 3.45415,-1.38787 6.07474,0 23.816,-8.23526 34.18405,-15.8678 11.04766,-8.13281 11.20642,-8.18302 12.7983,-4.04807 6.83014,17.74143 19.4143,48.77063 20.08465,49.52335 1.05388,1.18332 14.23067,-13.53696 28.55307,-31.89777 6.14301,-7.87506 11.77124,-13.94616 12.50721,-13.49133 0.73593,0.45487 5.74035,12.13715 11.12094,25.96069 5.38055,13.82355 10.38675,24.89093 11.12484,24.59415 0.7381,-0.29678 8.03766,-8.8667 16.22129,-19.04425 8.18359,-10.17755 17.02609,-20.49948 19.64999,-22.93759 l 4.77075,-4.43292 1.72266,4.43292 c 0.94745,2.43811 5.58844,14.39166 10.31332,26.56344 4.72483,12.17179 8.88959,22.42945 9.25492,22.7948 0.36532,0.36536 4.70147,-2.43316 9.63583,-6.2189 9.45569,-7.25464 26.31647,-15.55609 31.69247,-15.60391 8.91132,-0.0793 8.74216,-2.30286 -2.2709,-29.85321 -5.83896,-14.60675 -10.78583,-26.7352 -10.99304,-26.95215 -0.20722,-0.21695 -4.50159,0.69696 -9.54306,2.03089 -11.35385,3.00412 -21.77649,8.27468 -31.1637,15.75897 -3.95654,3.15451 -7.70373,5.72873 -8.32709,5.72055 -0.62338,-0.008 -5.63192,-11.45792 -11.13006,-25.44391 -5.49814,-13.98596 -10.30371,-25.79343 -10.67896,-26.23883 -1.23852,-1.46994 -17.40524,15.36716 -28.76202,29.95465 -6.14072,7.8876 -11.75772,14.34112 -12.48218,14.34112 -0.72452,0 -5.77081,-11.28765 -11.21399,-25.08371 -5.44321,-13.79602 -10.39328,-25.39056 -11.00018,-25.76565 -0.60687,-0.37509 -7.05972,6.95721 -14.33965,16.29397 -13.21156,16.94437 -25.79568,30.38892 -27.02938,28.87751 -0.35859,-0.43933 -5.0864,-12.04035 -10.50625,-25.78006 -5.41984,-13.73969 -10.07147,-25.26453 -10.33696,-25.61075 -0.26547,-0.34619 -4.91812,2.6734 -10.3392,6.7102 -12.70369,9.45981 -16.86154,11.58377 -29.56615,15.10321 l -10.45727,2.89688 9.99464,24.90213 c 5.49707,13.69617 9.99469,26.07007 9.99469,27.49756 0,2.09723 -2.34742,2.34406 -12.22899,1.28583 -13.69163,-1.46625 -26.64027,-5.50323 -41.0135,-12.78668 -5.32033,-2.69601 -9.67335,-4.1936 -9.67335,-3.32794 0,5.25821 19.30478,49.99688 22.994,53.28839 12.15494,10.84466 58.68355,23.67377 61.28384,16.89752 z m 260.40914,-101.49683 -10.67786,-26.63986 -11.46762,-6.06473 c -18.89462,-9.99252 -52.37347,-17.01467 -52.37347,-10.98532 0,1.30893 4.49719,13.5914 9.99374,27.29438 l 9.99374,24.91452 12.1005,1.22415 c 15.03445,1.52099 28.70953,5.60443 41.93069,12.52066 5.59766,2.92825 10.40268,5.11078 10.67783,4.85007 0.27518,-0.26072 -4.30472,-12.46195 -10.17755,-27.11387 z M 346.98059,290.19415 c 3.66321,-1.84021 9.99127,-4.35455 14.06229,-5.58731 4.07101,-1.23282 8.38974,-2.54806 9.59716,-2.92285 1.45582,-0.45187 -1.24578,-9.2868 -8.02035,-26.22858 -5.61859,-14.05096 -10.95157,-26.31163 -11.85104,-27.24594 -3.7945,-3.94146 -26.65653,5.84249 -43.94761,18.80767 l -5.5422,4.15564 -10.14826,-25.36356 c -5.58157,-13.94994 -11.03372,-25.65871 -12.11596,-26.01944 -1.84372,-0.61458 -31.37348,33.58713 -37.21607,43.10406 -2.45605,4.00065 -1.88524,6.31717 7.28163,29.55108 5.47065,13.86557 10.42577,25.50625 11.01137,25.86819 0.58567,0.36194 7.26978,-7.18628 14.85364,-16.77383 13.97226,-17.66373 25.36081,-29.83025 26.55942,-28.37375 0.5437,0.66066 14.06277,34.18789 19.9158,49.39111 1.60822,4.17725 1.6178,4.17499 10.25473,-2.41773 4.75473,-3.62936 11.64221,-8.10452 15.30545,-9.94476 z m 68.65103,-47.30236 c 0,-0.49221 -4.20273,-11.52562 -9.33942,-24.5187 -10.58709,-26.77967 -12.66146,-29.16307 -32.64764,-37.51101 -12.54144,-5.23839 -40.08572,-11.05854 -42.22259,-8.92166 -0.53852,0.53851 3.79464,13.17703 9.62924,28.08561 l 10.60833,27.10649 11.16831,0.0248 c 11.66537,0.0259 36.9642,7.5504 45.50943,13.53573 4.36261,3.05567 7.29434,3.9394 7.29434,2.19877 z"
         id="path2396" />
    </g>
  </g>
</svg>
